# xmcd CD database file
#
# Track frame offsets:
#	150
#	32896
#	54347
#	69362
#	82243
#	104513
#	124487
#	157968
#	174253
#	192537
#	205307
#	213622
#	239954
#	257588
#	272529
#	301937
#	316150
#	327322
#	340129
#	350378
#	363112
#
# Disc length: 4952 seconds
#
# Revision: 1
# Processed by: cddbd v1.5.2PL0 Copyright (c) Steve Scherf et al.
# Submitted via: CDex 1.51
#
DISCID=42135615
DTITLE=Bertina Henrichs - Ein Garten am Meer
DYEAR=2011
DGENRE=Hörbuch
TTITLE0=Ein Garten am Meer 31
TTITLE1=Ein Garten am Meer 32
TTITLE2=Ein Garten am Meer 33
TTITLE3=Ein Garten am Meer 34
TTITLE4=Ein Garten am Meer 35
TTITLE5=Ein Garten am Meer 36
TTITLE6=Ein Garten am Meer 37
TTITLE7=Ein Garten am Meer 38
TTITLE8=Ein Garten am Meer 39
TTITLE9=Ein Garten am Meer 40
TTITLE10=Ein Garten am Meer 41
TTITLE11=Ein Garten am Meer 42
TTITLE12=Ein Garten am Meer 43
TTITLE13=Ein Garten am Meer 44
TTITLE14=Ein Garten am Meer 45
TTITLE15=Ein Garten am Meer 46
TTITLE16=Ein Garten am Meer 47
TTITLE17=Ein Garten am Meer 48
TTITLE18=Ein Garten am Meer 49
TTITLE19=Ein Garten am Meer 50
TTITLE20=Ein Garten am Meer 51
EXTD=YEAR: 2011
EXTT0=
EXTT1=
EXTT2=
EXTT3=
EXTT4=
EXTT5=
EXTT6=
EXTT7=
EXTT8=
EXTT9=
EXTT10=
EXTT11=
EXTT12=
EXTT13=
EXTT14=
EXTT15=
EXTT16=
EXTT17=
EXTT18=
EXTT19=
EXTT20=
PLAYORDER=
